#!OML:ASF F:\VICON\USERDATA\INSTALL\rory3\rory3.ASF
:FULLY-SPECIFIED
:DEGREES
37
root 0.3805365258191535 18.348703912719138 14.106331293110845 1.2483124587421188 -3.5447331722939746 1.577682558695273
lfemur 14.091258749894347 -5.285571101282509 -27.481127861879457
ltibia 36.21037218968171
lfoot 15.621714815355185 -14.630409873163979
ltoes -5.075613348312968
rfemur -32.984717834110754 1.834749203297641 24.375031702692254
rtibia 22.120265831880147
rfoot -1.8594325571086536 -2.477240160695871
rtoes -6.974856203667898
lowerback 11.997088343569771 -1.8784428857325652 -2.4327523714951873
upperback -0.4511626691367104 -2.720636413470097 1.8875741819105465
thorax -6.986015545835529 -1.193181857121332 4.195085918099409
lowerneck -19.25768060894669 -2.373658208273473 -2.305620870272152
upperneck 17.573569485156597 -2.915511480920321 1.1454405749423224
head 8.678231525319001 -1.379551885515568 0.3931763277936931
lclavicle -2.0256136350617042e-15 8.502757126424758e-16
lhumerus -29.719153297683896 -13.070701602725453 88.40160929416314
lradius 72.31876812009762
lwrist 19.36879016206655
lhand -25.676368083339742 11.356338944870002
lfingers 7.125019999999999
lthumb 0.8584010003048591 41.32498989461018
rclavicle -2.0256136350617042e-15 8.502757126424758e-16
rhumerus -49.35835032450532 -14.270241211122173 -85.3529610875554
rradius 69.23599106213474
rwrist 0.07717928249338213
rhand -16.57386956176989 31.93149317408282
rfingers 7.125019999999999
rthumb 9.645902526469317 1.9219143286201494
38
root 0.3900876960393942 18.221597626417758 14.957950684470267 0.6464109814880393 -3.9528615662818227 1.4171790809215699
lfemur 12.25796260491968 -4.660410037068871 -26.78443540685306
ltibia 41.14398093997033
lfoot 14.59753053606685 -14.432179807556869
ltoes -3.4527068566365657
rfemur -32.35547050847127 1.6632322105532777 24.93320196193943
rtibia 23.413256866591276
rfoot -2.775979087509423 -1.5496384501243519
rtoes -3.8585465549642937
lowerback 12.22452184398131 -1.6963675701957177 -2.310291780812748
upperback -0.27777452823255944 -2.469671858977943 1.8654527612630956
thorax -7.0226856465098155 -1.0760708970722759 3.971412474052733
lowerneck -19.03228843454972 -2.4310566964521287 -2.4118204290287095
upperneck 17.461060792923128 -2.968848845391463 1.0334005959482817
head 8.60347848093587 -1.4174265599627984 0.35744704875945416
lclavicle -2.489636392842184e-15 5.249316552566408e-16
lhumerus -30.486004710674298 -12.756882284464634 88.70242155606077
lradius 69.62105522540018
lwrist 19.16746261216834
lhand -26.173197337741843 10.741874692280014
lfingers 7.125019999999999
lthumb 0.3785672597727239 40.7085937589903
rclavicle -2.489636392842184e-15 5.249316552566408e-16
rhumerus -48.66187728110124 -14.538149765501117 -85.41835949848922
rradius 68.51400890905195
rwrist 0.38045654935069395
rhand -16.859123471324292 31.91603088954263
rfingers 7.125019999999999
rthumb 9.370706390662317 1.921947843922629
39
root 0.3834309878052039 18.079843579312612 15.837505722567517 0.07305092488285447 -4.3445621142384825 1.0660441380753345
lfemur 10.110038232427886 -3.625830519373542 -25.351892697285237
ltibia 47.56989333225663
lfoot 13.508338991800253 -13.64404052163503
ltoes -2.538754018644301
rfemur -31.076106503843427 1.6622836929069595 25.87805602131775
rtibia 25.8679030338183
rfoot -3.9930593554284597 -0.4980571384917143
rtoes 0.9358271746645843
lowerback 12.428136081270274 -1.4052989415676187 -1.9599679015770637
upperback -0.11919973971154338 -2.0326875693200384 1.927424491655719
thorax -7.062959647476297 -0.8749254549863295 3.7391987309756347
lowerneck -18.865056304281477 -2.458306131657473 -2.4445764678936572
upperneck 17.410142407332224 -2.9920912081899766 0.8744239107002557
head 8.554586751004805 -1.4395124196575404 0.29724673794981016
lclavicle -2.590705908662544e-15 4.540674935325689e-16
lhumerus -31.51853133744246 -12.120470700213975 89.13074550030362
lradius 66.940743642546
lwrist 19.059108754242132
lhand -26.633043851867814 10.21599219930427
lfingers 7.125019999999999
lthumb -0.06553964403731954 40.18097817597542
rclavicle -2.590705908662544e-15 4.540674935325689e-16
rhumerus -47.67780043518507 -14.332075391681204 -85.55707740034622
rradius 67.72447110809455
rwrist 0.5896549927915662
rhand -17.114730191197356 31.854025625078247
rfingers 7.125019999999999
rthumb 9.124143637887233 1.8775592806808072
40
root 0.36995137270895356 17.937007662691254 16.60506022184855 -0.3804400358527764 -4.733290801593543 0.3534736682403863
lfemur 7.705122811471362 -2.2201284991017713 -22.975578320265683
ltibia 54.52438595391274
lfoot 12.098580973826088 -12.11241144208092
ltoes -1.261470629144684
rfemur -29.83153007340435 2.103019062385654 27.129428426418922
rtibia 30.80459424685254
rfoot -5.871573672596763 -0.6861387772625624
rtoes 6.170711045351393
lowerback 12.769935036473683 -1.0288027702467029 -1.299524549455411
upperback 0.03872342768243342 -1.4130818694298224 2.1257006909833462
thorax -7.161764039878089 -0.594377894979341 3.4969654274517383
lowerneck -18.782464956215744 -2.4838586286478472 -2.3788131744966337
upperneck 17.459793194936374 -3.0107403786556874 0.7348070139408183
head 8.555177845868746 -1.461585354284508 0.22307210937461783
lclavicle -2.295608823221681e-15 6.609656464410665e-16
lhumerus -32.38060529075071 -11.198144997517092 89.75852342583816
lradius 64.3657840804731
lwrist 18.915346361686023
lhand -26.867798158453454 10.125710584430415
lfingers 7.125019999999999
lthumb -0.2922691419730458 40.09065488683389
rclavicle -2.295608823221681e-15 6.609656464410665e-16
rhumerus -46.260068443355145 -13.56700733487655 -85.85071862760643
rradius 66.82785882283649
rwrist 0.6132439619095713
rhand -17.274164181624986 31.860391894331965
rfingers 7.125019999999999
rthumb 8.970336900337934 1.8752412802772394
